<?xml version="1.0" encoding="utf-8"?>
<!-- Generator: Adobe Illustrator 21.0.2, SVG Export Plug-In . SVG Version: 6.00 Build 0)  -->
<svg version="1.1" id="Layer_1" xmlns="http://www.w3.org/2000/svg" xmlns:xlink="http://www.w3.org/1999/xlink" x="0px" y="0px"
	 viewBox="0 0 200 50" style="enable-background:new 0 0 200 50;" xml:space="preserve">
<style type="text/css">
	.st0{fill:#009DD1;}
	.st1{fill:#FFE127;}
</style>
<g>
	<path class="st0" d="M56.5,26.9c2.2,0,4.1-0.8,5.5-2.1c0.6-0.5,0.4-1.7-0.2-2.2c-0.6-0.5-1.6-0.5-2.1,0c-0.8,0.8-1.9,1.2-3.2,1.2
		c-2.6,0-4.5-2.1-4.5-4.7c0-2.6,1.9-4.7,4.5-4.7c1.3,0,2.4,0.4,3.2,1.2c0.6,0.5,1.5,0.5,2.1,0c0.6-0.6,0.8-1.7,0.2-2.2
		c-1.4-1.3-3.3-2.1-5.5-2.1c-4.4,0-7.8,3.5-7.8,7.9C48.7,23.4,52,26.9,56.5,26.9z"/>
	<path class="st0" d="M66.2,26.8c0.9,0,1.6-0.7,1.6-1.5V12.6c0-0.8-0.7-1.5-1.6-1.5c-0.9,0-1.6,0.7-1.6,1.5v12.7
		C64.6,26.1,65.4,26.8,66.2,26.8z"/>
	<path class="st0" d="M77.2,14.1h3c0.7,0,1.3-0.7,1.3-1.4c0-0.8-0.6-1.5-1.3-1.5H71c-0.7,0-1.3,0.7-1.3,1.5c0,0.7,0.7,1.4,1.3,1.4h3
		v11.2c0,0.8,0.8,1.5,1.6,1.5c0.9,0,1.6-0.7,1.6-1.5V14.1z"/>
	<path class="st0" d="M84.9,26.8c0.9,0,1.6-0.7,1.6-1.5V12.6c0-0.8-0.7-1.5-1.6-1.5c-0.9,0-1.6,0.7-1.6,1.5v12.7
		C83.3,26.1,84.1,26.8,84.9,26.8z"/>
	<path class="st0" d="M91.6,26.7h7.4c0.7,0,1.3-0.7,1.3-1.4c0-0.8-0.6-1.4-1.3-1.4h-5.4v-3.3H98c0.7,0,1.3-0.7,1.3-1.4
		c0-0.8-0.6-1.4-1.3-1.4h-4.5v-3.6h5.2c0.7,0,1.3-0.7,1.3-1.4c0-0.8-0.6-1.5-1.3-1.5h-7.2c-0.8,0-1.3,0.6-1.3,1.4v12.7
		C90.3,26.1,90.7,26.7,91.6,26.7z"/>
	<path class="st0" d="M113.2,22.4c0-1.5-0.5-3.6-4.3-4.7l-1.8-0.5c-1.5-0.4-1.7-1.2-1.7-1.6c0-0.9,0.9-1.6,2-1.6
		c0.7,0,1.6,0.2,2.2,1.1c0.5,0.7,1.3,0.9,2.1,0.4c0.6-0.4,0.9-1.1,0.5-1.8c-0.8-1.6-2.5-2.6-4.7-2.6c-3,0-5.3,1.9-5.3,4.6
		c0,1.4,0.6,3.4,4,4.4l1.9,0.5c1.6,0.4,1.9,1.1,1.9,1.8c0,1-0.9,1.6-2.3,1.6c-1.4,0-2.2-0.8-2.5-1.5c-0.3-0.7-1.1-1.1-2-0.8
		c-0.8,0.3-1.1,1.1-0.9,1.8c0.7,2,2.7,3.3,5.4,3.3C110.3,26.9,113.1,25.4,113.2,22.4z"/>
	<path class="st0" d="M122.8,26.8c0.9,0,1.6-0.7,1.6-1.5v-3.9h3.1c3.5,0,5.1-2.5,5.1-5.1c0-2.5-1.6-5.1-5.1-5.1h-4.8
		c-1,0-1.6,0.8-1.6,1.7v12.4C121.1,26.1,121.9,26.8,122.8,26.8z M124.4,14.1h3c1.2,0,1.9,1.2,1.9,2.2c0,1-0.7,2.2-2,2.2h-2.9V14.1z"
		/>
	<path class="st0" d="M142.2,26.9c4.4,0,7.9-3.6,7.9-7.9c0-4.4-3.5-8-7.9-8c-4.4,0-7.8,3.6-7.8,8C134.3,23.3,137.8,26.9,142.2,26.9z
		 M142.2,14.2c2.6,0,4.6,2.2,4.6,4.8c0,2.6-2,4.7-4.6,4.7c-2.6,0-4.6-2.1-4.6-4.7C137.6,16.4,139.6,14.2,142.2,14.2z"/>
	<path class="st0" d="M160.3,18.6l1.8,7c0.2,0.7,0.8,1.3,1.6,1.3h0.2c0.7,0,1.3-0.5,1.5-1.3l4.2-12.4c0.3-0.8-0.2-1.8-1.1-2
		c-0.8-0.2-1.8,0.2-2,0.9l-2.8,8.9l-1.8-6.7c-0.2-0.7-0.7-1.1-1.5-1.1h-0.1c-0.8,0-1.3,0.4-1.5,1.1l-1.8,6.7l-2.8-8.9
		c-0.2-0.8-1.2-1.2-2-0.9c-0.9,0.2-1.3,1.2-1.1,2l4.2,12.4c0.2,0.8,0.8,1.3,1.5,1.3h0.2c0.7,0,1.3-0.5,1.6-1.3L160.3,18.6z"/>
	<path class="st0" d="M182,25.3c0-0.8-0.6-1.4-1.3-1.4h-5.4v-3.3h4.5c0.7,0,1.3-0.7,1.3-1.4c0-0.8-0.6-1.4-1.3-1.4h-4.5v-3.6h5.2
		c0.7,0,1.3-0.7,1.3-1.4c0-0.8-0.6-1.5-1.3-1.5h-7.2c-0.8,0-1.3,0.6-1.3,1.4v12.7c0,0.8,0.5,1.4,1.3,1.4h7.4
		C181.4,26.7,182,26,182,25.3z"/>
	<path class="st0" d="M192.5,20.8c2.3-0.7,3.4-2.6,3.5-4.6c0-2.5-1.7-5-5.2-5h-4.7c-1,0-1.6,0.8-1.6,1.7v12.4c0,0.8,0.8,1.5,1.6,1.5
		c0.9,0,1.6-0.7,1.6-1.5v-4h1.5l3,4.9c0.4,0.7,1.4,0.9,2.1,0.4c0.8-0.4,1.1-1.5,0.6-2.1L192.5,20.8z M190.8,18.5h-2.9v-4.4h3
		c1.2,0,1.9,1.2,1.9,2.2C192.7,17.3,192,18.5,190.8,18.5z"/>
	<path class="st0" d="M56.2,31.1h-4.8c-1,0-1.6,0.8-1.6,1.7v12.4c0,0.8,0.8,1.5,1.6,1.5c0.9,0,1.6-0.7,1.6-1.5v-3.9h3.1
		c3.5,0,5.1-2.5,5.1-5.1C61.3,33.7,59.7,31.1,56.2,31.1z M56,38.4h-2.9V34h3c1.2,0,1.9,1.2,1.9,2.2C58,37.2,57.3,38.4,56,38.4z"/>
	<path class="st0" d="M70.6,32.5c-0.4-0.9-1.1-1.5-2.2-1.5h-0.1c-1.1,0-1.9,0.6-2.2,1.5l-4.5,12.1c-0.3,0.8,0.2,1.8,1,2
		c0.8,0.3,1.8-0.1,2.1-0.9l1.1-2.8h5.3l1.1,2.8c0.3,0.8,1.2,1.1,2.1,0.9c0.8-0.3,1.3-1.3,1-2L70.6,32.5z M66.7,40.1l1.6-5.4l1.6,5.4
		H66.7z"/>
	<path class="st0" d="M88.7,36.1c0-2.5-1.7-5-5.2-5h-4.7c-1,0-1.6,0.8-1.6,1.7v12.4c0,0.8,0.8,1.5,1.6,1.5c0.9,0,1.6-0.7,1.6-1.5v-4
		H82l3,4.9c0.4,0.7,1.4,0.9,2.1,0.4c0.8-0.4,1.1-1.5,0.6-2.1l-2.5-3.6C87.5,40.1,88.6,38.1,88.7,36.1z M83.4,38.4h-2.9V34h3
		c1.2,0,1.9,1.2,1.9,2.2C85.4,37.2,84.7,38.4,83.4,38.4z"/>
	<path class="st0" d="M100.2,31.1H91c-0.7,0-1.3,0.7-1.3,1.5c0,0.7,0.7,1.4,1.3,1.4h3v11.2c0,0.8,0.8,1.5,1.6,1.5
		c0.9,0,1.6-0.7,1.6-1.5V34h3c0.7,0,1.3-0.7,1.3-1.4C101.5,31.8,100.9,31.1,100.2,31.1z"/>
	<path class="st0" d="M113.5,31c-0.9,0-1.6,0.7-1.6,1.5v7.8l-4.7-8.2c-0.5-0.9-1.1-1.1-1.8-1.1h-0.3c-0.8,0-1.5,0.7-1.5,1.7v12.5
		c0,0.8,0.8,1.5,1.6,1.5c0.9,0,1.6-0.7,1.6-1.5v-8l4.8,8.4c0.5,0.9,1.1,1.1,1.8,1.1h0.3c0.8,0,1.5-0.7,1.5-1.6V32.5
		C115.2,31.7,114.4,31,113.5,31z"/>
	<path class="st0" d="M127.1,43.7h-5.4v-3.3h4.5c0.7,0,1.3-0.7,1.3-1.4c0-0.8-0.6-1.4-1.3-1.4h-4.5V34h5.2c0.7,0,1.3-0.7,1.3-1.4
		c0-0.8-0.6-1.5-1.3-1.5h-7.2c-0.8,0-1.3,0.6-1.3,1.4v12.7c0,0.8,0.5,1.4,1.3,1.4h7.4c0.7,0,1.3-0.7,1.3-1.4
		C128.4,44.4,127.8,43.7,127.1,43.7z"/>
	<path class="st0" d="M142.4,36.1c0-2.5-1.7-5-5.2-5h-4.7c-1,0-1.6,0.8-1.6,1.7v12.4c0,0.8,0.8,1.5,1.6,1.5c0.9,0,1.6-0.7,1.6-1.5
		v-4h1.5l3,4.9c0.4,0.7,1.4,0.9,2.1,0.4c0.8-0.4,1.1-1.5,0.6-2.1l-2.5-3.6C141.3,40.1,142.4,38.1,142.4,36.1z M137.2,38.4h-2.9V34h3
		c1.2,0,1.9,1.2,1.9,2.2C139.2,37.2,138.5,38.4,137.2,38.4z"/>
	<path class="st0" d="M151.5,37.6l-1.8-0.5c-1.5-0.4-1.7-1.2-1.7-1.6c0-0.9,0.9-1.6,2-1.6c0.7,0,1.6,0.2,2.2,1.1
		c0.5,0.7,1.3,0.9,2.1,0.4c0.6-0.4,0.9-1.1,0.5-1.8c-0.8-1.6-2.5-2.6-4.7-2.6c-3,0-5.3,1.9-5.3,4.6c0,1.4,0.6,3.4,4,4.4l1.9,0.5
		c1.6,0.4,1.9,1.1,1.9,1.8c0,1-0.9,1.6-2.3,1.6c-1.4,0-2.2-0.8-2.5-1.5c-0.3-0.7-1.1-1.1-2-0.8c-0.8,0.3-1.1,1.1-0.9,1.8
		c0.7,2,2.7,3.3,5.4,3.3c2.7,0,5.5-1.5,5.6-4.5C155.8,40.8,155.2,38.7,151.5,37.6z"/>
	<path class="st0" d="M168.5,31c-0.9,0-1.6,0.7-1.6,1.5v4.9h-5.5v-4.9c0-0.8-0.7-1.5-1.6-1.5c-0.9,0-1.6,0.7-1.6,1.5v12.7
		c0,0.8,0.8,1.5,1.6,1.5c0.9,0,1.6-0.7,1.6-1.5v-4.8h5.5v4.8c0,0.8,0.8,1.5,1.6,1.5c0.9,0,1.6-0.7,1.6-1.5V32.5
		C170.1,31.7,169.4,31,168.5,31z"/>
	<path class="st0" d="M175.1,31c-0.9,0-1.6,0.7-1.6,1.5v12.7c0,0.8,0.8,1.5,1.6,1.5c0.9,0,1.6-0.7,1.6-1.5V32.5
		C176.7,31.7,176,31,175.1,31z"/>
	<path class="st0" d="M186.4,31.1h-4.8c-1,0-1.6,0.8-1.6,1.7v12.4c0,0.8,0.8,1.5,1.6,1.5c0.9,0,1.6-0.7,1.6-1.5v-3.9h3.1
		c3.5,0,5.1-2.5,5.1-5.1C191.5,33.7,190,31.1,186.4,31.1z M186.3,38.4h-2.9V34h3c1.2,0,1.9,1.2,1.9,2.2
		C188.2,37.2,187.6,38.4,186.3,38.4z"/>
</g>
<g>
	<path class="st1" d="M21.9,11c-3.9,0-7.3,1.7-9.2,4.8c-2.2,3.5-2.3,8.1-0.2,12.6c0.8,1.9,3.2,7.8,3.2,7.8c0.2,0.5,0.6,0.8,1.2,0.8
		h5.1c0.7,0,1.2-0.6,1.2-1.2v-8.7c0-0.7-0.6-1.2-1.2-1.2s-1.2,0.6-1.2,1.2v7.5h-3c-0.7-1.7-2.2-5.6-2.9-7.1
		c-1.7-3.8-1.7-7.5,0.1-10.3c1.5-2.3,4-3.6,7.1-3.6c3.1,0,5.7,1.3,7.2,3.6c1.7,2.7,1.8,6.4,0.1,10.3c-0.7,1.7-2.6,6.2-3.1,7.6
		c-0.3,0.6,0.1,1.4,0.7,1.6c0.6,0.3,1.4-0.1,1.6-0.7c0.5-1.3,2.4-5.9,3.1-7.5c2.1-4.6,2-9.2-0.2-12.6C29.3,12.8,25.9,11,21.9,11z"/>
	<path class="st1" d="M19.3,22.7l-3,2.1c-0.6,0.4-0.7,1.2-0.3,1.7c0.2,0.3,0.6,0.5,1,0.5c0.2,0,0.5-0.1,0.7-0.2l3-2.1
		c0.6-0.4,0.7-1.2,0.3-1.7C20.6,22.4,19.8,22.3,19.3,22.7z"/>
	<path class="st1" d="M23.1,20.6V17c0-0.7-0.6-1.2-1.2-1.2s-1.2,0.6-1.2,1.2v3.6c0,0.7,0.6,1.2,1.2,1.2S23.1,21.3,23.1,20.6z"/>
	<path class="st1" d="M26.2,26.8c0.2,0.2,0.5,0.2,0.7,0.2c0.4,0,0.8-0.2,1-0.5c0.4-0.6,0.3-1.3-0.3-1.7l-3-2.1
		c-0.6-0.4-1.3-0.3-1.7,0.3c-0.4,0.6-0.3,1.3,0.3,1.7L26.2,26.8z"/>
	<path class="st1" d="M21.9,9.1c0.7,0,1.2-0.6,1.2-1.2V4.2c0-0.7-0.6-1.2-1.2-1.2s-1.2,0.6-1.2,1.2v3.6C20.7,8.5,21.2,9.1,21.9,9.1z
		"/>
	<path class="st1" d="M7.9,20.9H4.4c-0.7,0-1.2,0.6-1.2,1.2c0,0.7,0.6,1.2,1.2,1.2h3.6c0.7,0,1.2-0.6,1.2-1.2
		C9.2,21.4,8.6,20.9,7.9,20.9z"/>
	<path class="st1" d="M10.2,13.9l-3.1-1.8c-0.6-0.3-1.4-0.1-1.7,0.5c-0.3,0.6-0.1,1.4,0.5,1.7L8.9,16c0.2,0.1,0.4,0.2,0.6,0.2
		c0.4,0,0.8-0.2,1.1-0.6C11,15,10.8,14.2,10.2,13.9z"/>
	<path class="st1" d="M13.7,10.4c0.2,0.4,0.6,0.6,1.1,0.6c0.2,0,0.4-0.1,0.6-0.2c0.6-0.3,0.8-1.1,0.5-1.7L14.1,6
		c-0.3-0.6-1.1-0.8-1.7-0.5c-0.6,0.3-0.8,1.1-0.5,1.7L13.7,10.4z"/>
	<path class="st1" d="M39.6,20.9H36c-0.7,0-1.2,0.6-1.2,1.2c0,0.7,0.6,1.2,1.2,1.2h3.6c0.7,0,1.2-0.6,1.2-1.2
		C40.8,21.4,40.3,20.9,39.6,20.9z"/>
	<path class="st1" d="M38.1,14.2c0.6-0.3,0.8-1.1,0.5-1.7c-0.3-0.6-1.1-0.8-1.7-0.5l-3.1,1.8c-0.6,0.3-0.8,1.1-0.5,1.7
		c0.2,0.4,0.6,0.6,1.1,0.6c0.2,0,0.4-0.1,0.6-0.2L38.1,14.2z"/>
	<path class="st1" d="M28.5,10.8c0.2,0.1,0.4,0.2,0.6,0.2c0.4,0,0.8-0.2,1.1-0.6L32,7.3c0.3-0.6,0.1-1.4-0.5-1.7
		C31,5.2,30.2,5.4,29.9,6l-1.8,3.1C27.8,9.7,28,10.5,28.5,10.8z"/>
	<path class="st1" d="M25.6,39.2h-7.2c-0.7,0-1.2,0.6-1.2,1.2s0.6,1.2,1.2,1.2h7.2c0.7,0,1.2-0.6,1.2-1.2S26.3,39.2,25.6,39.2z"/>
	<path class="st1" d="M23.8,44.3h-3.6c-0.7,0-1.2,0.6-1.2,1.2s0.6,1.2,1.2,1.2h3.6c0.7,0,1.2-0.6,1.2-1.2S24.5,44.3,23.8,44.3z"/>
</g>
</svg>
